<mxfile host="app.diagrams.net" agent="Mozilla/5.0 (Windows NT 10.0; Win64; x64) AppleWebKit/537.36 (KHTML, like Gecko) Chrome/130.0.0.0 Safari/537.36" version="24.8.0">
  <diagram id="PO44SZ9YIMK82T6R0xJ6" name="Page-1">
    <mxGraphModel grid="0" page="1" gridSize="10" guides="1" tooltips="1" connect="1" arrows="1" fold="1" pageScale="1" pageWidth="1169" pageHeight="827" math="0" shadow="0">
      <root>
        <mxCell id="0" />
        <mxCell id="1" parent="0" />
        <mxCell id="SAQcJs8MRydyyW-BfxmB-15" style="edgeStyle=orthogonalEdgeStyle;rounded=0;orthogonalLoop=1;jettySize=auto;html=1;entryX=0.5;entryY=0;entryDx=0;entryDy=0;strokeWidth=2;" edge="1" parent="1" source="SAQcJs8MRydyyW-BfxmB-2" target="SAQcJs8MRydyyW-BfxmB-7">
          <mxGeometry relative="1" as="geometry" />
        </mxCell>
        <mxCell id="SAQcJs8MRydyyW-BfxmB-2" value="1. PROBLEMA E MOTIVAÇÃO" style="rounded=1;whiteSpace=wrap;html=1;fontStyle=1" vertex="1" parent="1">
          <mxGeometry x="210" y="79" width="120" height="60" as="geometry" />
        </mxCell>
        <mxCell id="SAQcJs8MRydyyW-BfxmB-3" value="&lt;font style=&quot;font-size: 18px;&quot;&gt;ETAPAS&lt;/font&gt;" style="rounded=1;whiteSpace=wrap;html=1;fontStyle=1" vertex="1" parent="1">
          <mxGeometry x="210" y="20" width="120" height="49" as="geometry" />
        </mxCell>
        <mxCell id="SAQcJs8MRydyyW-BfxmB-4" value="&lt;font style=&quot;font-size: 18px;&quot;&gt;ATIVIDADES&lt;/font&gt;" style="rounded=1;whiteSpace=wrap;html=1;fontStyle=1" vertex="1" parent="1">
          <mxGeometry x="360" y="20" width="490" height="49" as="geometry" />
        </mxCell>
        <mxCell id="SAQcJs8MRydyyW-BfxmB-5" value="&lt;font style=&quot;font-size: 18px;&quot;&gt;MÉTODO&lt;/font&gt;" style="rounded=1;whiteSpace=wrap;html=1;fontStyle=1" vertex="1" parent="1">
          <mxGeometry x="860" y="20" width="120" height="49" as="geometry" />
        </mxCell>
        <mxCell id="SAQcJs8MRydyyW-BfxmB-22" style="edgeStyle=orthogonalEdgeStyle;rounded=0;orthogonalLoop=1;jettySize=auto;html=1;entryX=1;entryY=0.5;entryDx=0;entryDy=0;strokeWidth=2;" edge="1" parent="1" source="SAQcJs8MRydyyW-BfxmB-6" target="SAQcJs8MRydyyW-BfxmB-2">
          <mxGeometry relative="1" as="geometry" />
        </mxCell>
        <mxCell id="SAQcJs8MRydyyW-BfxmB-6" value="&lt;blockquote style=&quot;margin: 0 0 0 40px; border: none; padding: 0px;&quot;&gt;&lt;div style=&quot;text-align: justify;&quot;&gt;&lt;span style=&quot;background-color: initial;&quot;&gt;1. Levantamento da Literatura.&lt;/span&gt;&lt;/div&gt;&lt;div style=&quot;text-align: justify;&quot;&gt;&lt;span style=&quot;background-color: initial;&quot;&gt;2. Análise de trabalhos relacionados.&lt;/span&gt;&lt;/div&gt;&lt;div style=&quot;text-align: justify;&quot;&gt;&lt;span style=&quot;background-color: initial;&quot;&gt;3. Estabelecer os objetivos de pesquisa.&lt;/span&gt;&lt;/div&gt;&lt;/blockquote&gt;" style="rounded=1;whiteSpace=wrap;html=1;align=left;fontSize=16;" vertex="1" parent="1">
          <mxGeometry x="360" y="79" width="490" height="60" as="geometry" />
        </mxCell>
        <mxCell id="SAQcJs8MRydyyW-BfxmB-16" style="edgeStyle=orthogonalEdgeStyle;rounded=0;orthogonalLoop=1;jettySize=auto;html=1;entryX=0.5;entryY=0;entryDx=0;entryDy=0;strokeWidth=2;" edge="1" parent="1" source="SAQcJs8MRydyyW-BfxmB-7" target="SAQcJs8MRydyyW-BfxmB-9">
          <mxGeometry relative="1" as="geometry" />
        </mxCell>
        <mxCell id="SAQcJs8MRydyyW-BfxmB-7" value="2. OBJETIVOS" style="rounded=1;whiteSpace=wrap;html=1;fontStyle=1" vertex="1" parent="1">
          <mxGeometry x="210" y="184" width="120" height="60" as="geometry" />
        </mxCell>
        <mxCell id="SAQcJs8MRydyyW-BfxmB-23" style="edgeStyle=orthogonalEdgeStyle;rounded=0;orthogonalLoop=1;jettySize=auto;html=1;entryX=1;entryY=0.5;entryDx=0;entryDy=0;" edge="1" parent="1" source="SAQcJs8MRydyyW-BfxmB-8" target="SAQcJs8MRydyyW-BfxmB-7">
          <mxGeometry relative="1" as="geometry" />
        </mxCell>
        <mxCell id="SAQcJs8MRydyyW-BfxmB-26" value="" style="edgeStyle=orthogonalEdgeStyle;rounded=0;orthogonalLoop=1;jettySize=auto;html=1;strokeWidth=2;" edge="1" parent="1" source="SAQcJs8MRydyyW-BfxmB-8" target="SAQcJs8MRydyyW-BfxmB-7">
          <mxGeometry relative="1" as="geometry" />
        </mxCell>
        <mxCell id="SAQcJs8MRydyyW-BfxmB-8" value="&lt;blockquote style=&quot;margin: 0 0 0 40px; border: none; padding: 0px;&quot;&gt;1. Levantamento do estado da arte.&lt;br&gt;2. Definição dos mecanismos de segurança a serem validados para inclusão no modelo proposto.&lt;br&gt;3. Definir técnicas e ferramentas para validação da proposta.&lt;br&gt;4. Estabelecer ou ajustar políticas de segurança predefinidos.&lt;/blockquote&gt;" style="rounded=1;whiteSpace=wrap;html=1;align=left;fontSize=16;" vertex="1" parent="1">
          <mxGeometry x="360" y="149" width="490" height="130" as="geometry" />
        </mxCell>
        <mxCell id="SAQcJs8MRydyyW-BfxmB-29" style="edgeStyle=orthogonalEdgeStyle;rounded=0;orthogonalLoop=1;jettySize=auto;html=1;entryX=0.5;entryY=0;entryDx=0;entryDy=0;strokeWidth=2;" edge="1" parent="1" source="SAQcJs8MRydyyW-BfxmB-9" target="SAQcJs8MRydyyW-BfxmB-27">
          <mxGeometry relative="1" as="geometry" />
        </mxCell>
        <mxCell id="SAQcJs8MRydyyW-BfxmB-9" value="&lt;font style=&quot;font-size: 11px;&quot;&gt;3. FUNDAMENTAÇÂO E TRABALHOS RELACIONADOS&lt;/font&gt;" style="rounded=1;whiteSpace=wrap;html=1;fontStyle=1" vertex="1" parent="1">
          <mxGeometry x="210" y="304" width="120" height="70" as="geometry" />
        </mxCell>
        <mxCell id="14ZbjKpCuwNWwpO6Ulf_-2" style="edgeStyle=orthogonalEdgeStyle;rounded=0;orthogonalLoop=1;jettySize=auto;html=1;entryX=1;entryY=0.5;entryDx=0;entryDy=0;strokeWidth=2;" edge="1" parent="1" source="SAQcJs8MRydyyW-BfxmB-10" target="SAQcJs8MRydyyW-BfxmB-9">
          <mxGeometry relative="1" as="geometry" />
        </mxCell>
        <mxCell id="SAQcJs8MRydyyW-BfxmB-10" value="&lt;blockquote style=&quot;margin: 0 0 0 40px; border: none; padding: 0px;&quot;&gt;1. Descrição dos principais temas relacionados a &lt;i&gt;IaC&lt;/i&gt;.&lt;br&gt;2. Caracterização dos trabalhos relacionados.&lt;br&gt;3. Descrever as políticas como código.&lt;br&gt;4. Mapear as questões de pesquisa correlatas ao método.&lt;/blockquote&gt;" style="rounded=1;whiteSpace=wrap;html=1;align=left;fontSize=16;" vertex="1" parent="1">
          <mxGeometry x="360" y="289" width="490" height="100" as="geometry" />
        </mxCell>
        <mxCell id="SAQcJs8MRydyyW-BfxmB-18" style="edgeStyle=orthogonalEdgeStyle;rounded=0;orthogonalLoop=1;jettySize=auto;html=1;entryX=0.5;entryY=0;entryDx=0;entryDy=0;strokeWidth=2;" edge="1" parent="1" source="SAQcJs8MRydyyW-BfxmB-11" target="SAQcJs8MRydyyW-BfxmB-13">
          <mxGeometry relative="1" as="geometry" />
        </mxCell>
        <mxCell id="SAQcJs8MRydyyW-BfxmB-11" value="5. RESULTADOS PRELIMINARES" style="rounded=1;whiteSpace=wrap;html=1;fontStyle=1" vertex="1" parent="1">
          <mxGeometry x="210" y="531.5" width="120" height="70" as="geometry" />
        </mxCell>
        <mxCell id="SAQcJs8MRydyyW-BfxmB-12" value="&lt;blockquote style=&quot;margin: 0 0 0 40px; border: none; padding: 0px;&quot;&gt;1. Implementar o ambiente com a arquitetura proposta.&amp;nbsp;&lt;br&gt;2. Testar o método para validação dos mecanismos de segurança dentro do ambiente &lt;i&gt;IaC&lt;/i&gt;.&lt;br&gt;3. Aplicar o modelo de adversário na arquitetura e verificar as contramedidas a serem abordadas no modelo.&lt;br&gt;4. Executar testes de intrusão (&lt;i&gt;pentest&lt;/i&gt;) no ambiente.&amp;nbsp;&lt;/blockquote&gt;" style="rounded=1;whiteSpace=wrap;html=1;align=left;fontSize=16;" vertex="1" parent="1">
          <mxGeometry x="360" y="509" width="490" height="130" as="geometry" />
        </mxCell>
        <mxCell id="SAQcJs8MRydyyW-BfxmB-19" style="edgeStyle=orthogonalEdgeStyle;rounded=0;orthogonalLoop=1;jettySize=auto;html=1;entryX=0.5;entryY=0;entryDx=0;entryDy=0;strokeWidth=2;" edge="1" parent="1" source="SAQcJs8MRydyyW-BfxmB-13" target="SAQcJs8MRydyyW-BfxmB-14">
          <mxGeometry relative="1" as="geometry" />
        </mxCell>
        <mxCell id="SAQcJs8MRydyyW-BfxmB-35" style="edgeStyle=orthogonalEdgeStyle;rounded=0;orthogonalLoop=1;jettySize=auto;html=1;entryX=0;entryY=0.5;entryDx=0;entryDy=0;strokeWidth=2;exitX=0;exitY=0.5;exitDx=0;exitDy=0;" edge="1" parent="1" source="SAQcJs8MRydyyW-BfxmB-14" target="SAQcJs8MRydyyW-BfxmB-7">
          <mxGeometry relative="1" as="geometry">
            <Array as="points">
              <mxPoint x="190" y="764" />
              <mxPoint x="190" y="214" />
            </Array>
          </mxGeometry>
        </mxCell>
        <mxCell id="SAQcJs8MRydyyW-BfxmB-37" style="edgeStyle=orthogonalEdgeStyle;rounded=0;orthogonalLoop=1;jettySize=auto;html=1;entryX=0;entryY=0.5;entryDx=0;entryDy=0;strokeWidth=2;exitX=0;exitY=0.5;exitDx=0;exitDy=0;" edge="1" parent="1" source="SAQcJs8MRydyyW-BfxmB-13" target="SAQcJs8MRydyyW-BfxmB-27">
          <mxGeometry relative="1" as="geometry">
            <Array as="points">
              <mxPoint x="190" y="674" />
              <mxPoint x="190" y="449" />
            </Array>
          </mxGeometry>
        </mxCell>
        <mxCell id="14ZbjKpCuwNWwpO6Ulf_-5" style="edgeStyle=orthogonalEdgeStyle;rounded=0;orthogonalLoop=1;jettySize=auto;html=1;exitX=0;exitY=0.5;exitDx=0;exitDy=0;entryX=0;entryY=0.5;entryDx=0;entryDy=0;strokeWidth=2;" edge="1" parent="1" source="SAQcJs8MRydyyW-BfxmB-13" target="SAQcJs8MRydyyW-BfxmB-9">
          <mxGeometry relative="1" as="geometry" />
        </mxCell>
        <mxCell id="SAQcJs8MRydyyW-BfxmB-13" value="6. CRONOGRAMA" style="rounded=1;whiteSpace=wrap;html=1;fontStyle=1" vertex="1" parent="1">
          <mxGeometry x="210" y="639" width="120" height="70" as="geometry" />
        </mxCell>
        <mxCell id="SAQcJs8MRydyyW-BfxmB-14" value="7. ESCRITA DA DISSERTAÇÃO E PUBLICAÇÕES" style="rounded=1;whiteSpace=wrap;html=1;fontStyle=1" vertex="1" parent="1">
          <mxGeometry x="210" y="729" width="120" height="70" as="geometry" />
        </mxCell>
        <mxCell id="SAQcJs8MRydyyW-BfxmB-20" value="Pesquisa Exploratória" style="rounded=1;whiteSpace=wrap;html=1;align=center;fontSize=13;fontStyle=1" vertex="1" parent="1">
          <mxGeometry x="860" y="79" width="120" height="200" as="geometry" />
        </mxCell>
        <mxCell id="SAQcJs8MRydyyW-BfxmB-21" value="Pesquisa Experimental" style="rounded=1;whiteSpace=wrap;html=1;align=center;fontSize=13;fontStyle=1" vertex="1" parent="1">
          <mxGeometry x="860" y="289" width="120" height="350" as="geometry" />
        </mxCell>
        <mxCell id="SAQcJs8MRydyyW-BfxmB-30" style="edgeStyle=orthogonalEdgeStyle;rounded=0;orthogonalLoop=1;jettySize=auto;html=1;entryX=0.5;entryY=0;entryDx=0;entryDy=0;strokeWidth=2;" edge="1" parent="1" source="SAQcJs8MRydyyW-BfxmB-27" target="SAQcJs8MRydyyW-BfxmB-11">
          <mxGeometry relative="1" as="geometry" />
        </mxCell>
        <mxCell id="SAQcJs8MRydyyW-BfxmB-27" value="4. METODOLOGIA E PROPOSTA" style="rounded=1;whiteSpace=wrap;html=1;fontStyle=1" vertex="1" parent="1">
          <mxGeometry x="210" y="414" width="120" height="70" as="geometry" />
        </mxCell>
        <mxCell id="SAQcJs8MRydyyW-BfxmB-31" style="edgeStyle=orthogonalEdgeStyle;rounded=0;orthogonalLoop=1;jettySize=auto;html=1;entryX=1;entryY=0.5;entryDx=0;entryDy=0;strokeWidth=2;" edge="1" parent="1" source="SAQcJs8MRydyyW-BfxmB-28" target="SAQcJs8MRydyyW-BfxmB-27">
          <mxGeometry relative="1" as="geometry" />
        </mxCell>
        <mxCell id="SAQcJs8MRydyyW-BfxmB-28" value="&lt;blockquote style=&quot;margin: 0 0 0 40px; border: none; padding: 0px;&quot;&gt;1. Desenvolver o método para validação dos mecanismos de segurança.&lt;br&gt;2. Definir políticas e boas práticas em segurança no provisionamento e configuração da &lt;i&gt;IaC&lt;/i&gt;.&lt;/blockquote&gt;&lt;div&gt;&lt;br&gt;&lt;/div&gt;" style="rounded=1;whiteSpace=wrap;html=1;align=left;fontSize=16;" vertex="1" parent="1">
          <mxGeometry x="360" y="399" width="490" height="100" as="geometry" />
        </mxCell>
        <mxCell id="gqzjHf08nQjsTLXSLyjp-1" style="edgeStyle=orthogonalEdgeStyle;rounded=0;orthogonalLoop=1;jettySize=auto;html=1;entryX=0.985;entryY=0.596;entryDx=0;entryDy=0;entryPerimeter=0;strokeWidth=2;" edge="1" parent="1" source="SAQcJs8MRydyyW-BfxmB-12" target="SAQcJs8MRydyyW-BfxmB-11">
          <mxGeometry relative="1" as="geometry" />
        </mxCell>
      </root>
    </mxGraphModel>
  </diagram>
</mxfile>
